<?xml version="1.0" encoding="UTF-8" standalone="no"?>
<svg
   xmlns:dc="http://purl.org/dc/elements/1.1/"
   xmlns:cc="http://creativecommons.org/ns#"
   xmlns:rdf="http://www.w3.org/1999/02/22-rdf-syntax-ns#"
   xmlns:svg="http://www.w3.org/2000/svg"
   xmlns="http://www.w3.org/2000/svg"
   xmlns:xlink="http://www.w3.org/1999/xlink"
   xmlns:sodipodi="http://sodipodi.sourceforge.net/DTD/sodipodi-0.dtd"
   xmlns:inkscape="http://www.inkscape.org/namespaces/inkscape"
   width="169.7159mm"
   height="77.787514mm"
   viewBox="0 0 169.7159 77.787514"
   version="1.1"
   id="svg1630"
   inkscape:version="1.0.1 (3bc2e813f5, 2020-09-07)"
   sodipodi:docname="logo.svg">
  <defs
     id="defs1624">
    <linearGradient
       inkscape:collect="always"
       id="linearGradient470">
      <stop
         style="stop-color:#6f918a;stop-opacity:1"
         offset="0"
         id="stop466" />
      <stop
         style="stop-color:#b7c4c8;stop-opacity:1"
         offset="1"
         id="stop468" />
    </linearGradient>
    <linearGradient
       inkscape:collect="always"
       id="linearGradient464">
      <stop
         style="stop-color:#6f918a;stop-opacity:1"
         offset="0"
         id="stop460" />
      <stop
         style="stop-color:#b7c4c8;stop-opacity:1"
         offset="1"
         id="stop462" />
    </linearGradient>
    <linearGradient
       inkscape:collect="always"
       id="linearGradient458">
      <stop
         style="stop-color:#6f918a;stop-opacity:1"
         offset="0"
         id="stop454" />
      <stop
         style="stop-color:#b7c4c8;stop-opacity:1"
         offset="1"
         id="stop456" />
    </linearGradient>
    <linearGradient
       inkscape:collect="always"
       id="linearGradient452">
      <stop
         style="stop-color:#6f918a;stop-opacity:1"
         offset="0"
         id="stop448" />
      <stop
         style="stop-color:#b7c4c8;stop-opacity:1"
         offset="1"
         id="stop450" />
    </linearGradient>
    <linearGradient
       inkscape:collect="always"
       id="linearGradient446">
      <stop
         style="stop-color:#6f918a;stop-opacity:1"
         offset="0"
         id="stop442" />
      <stop
         style="stop-color:#b7c4c8;stop-opacity:1"
         offset="1"
         id="stop444" />
    </linearGradient>
    <linearGradient
       inkscape:collect="always"
       id="linearGradient440">
      <stop
         style="stop-color:#6f918a;stop-opacity:1"
         offset="0"
         id="stop436" />
      <stop
         style="stop-color:#b7c4c8;stop-opacity:1"
         offset="1"
         id="stop438" />
    </linearGradient>
    <linearGradient
       inkscape:collect="always"
       id="linearGradient434">
      <stop
         style="stop-color:#6f918a;stop-opacity:1"
         offset="0"
         id="stop430" />
      <stop
         style="stop-color:#b7c4c8;stop-opacity:1"
         offset="1"
         id="stop432" />
    </linearGradient>
    <linearGradient
       inkscape:collect="always"
       id="linearGradient428">
      <stop
         style="stop-color:#6f918a;stop-opacity:1"
         offset="0"
         id="stop424" />
      <stop
         style="stop-color:#b7c4c8;stop-opacity:1"
         offset="1"
         id="stop426" />
    </linearGradient>
    <linearGradient
       inkscape:collect="always"
       id="linearGradient622">
      <stop
         style="stop-color:#00ffff;stop-opacity:1"
         offset="0"
         id="stop618" />
      <stop
         style="stop-color:#c87137;stop-opacity:1"
         offset="1"
         id="stop620" />
    </linearGradient>
    <linearGradient
       inkscape:collect="always"
       id="linearGradient616">
      <stop
         style="stop-color:#00ffff;stop-opacity:1"
         offset="0"
         id="stop612" />
      <stop
         style="stop-color:#c87137;stop-opacity:1"
         offset="1"
         id="stop614" />
    </linearGradient>
    <linearGradient
       inkscape:collect="always"
       id="linearGradient610">
      <stop
         style="stop-color:#00ffff;stop-opacity:1"
         offset="0"
         id="stop606" />
      <stop
         style="stop-color:#c87137;stop-opacity:1"
         offset="1"
         id="stop608" />
    </linearGradient>
    <linearGradient
       inkscape:collect="always"
       id="linearGradient604">
      <stop
         style="stop-color:#00ffff;stop-opacity:1"
         offset="0"
         id="stop600" />
      <stop
         style="stop-color:#c87137;stop-opacity:1"
         offset="1"
         id="stop602" />
    </linearGradient>
    <linearGradient
       inkscape:collect="always"
       id="linearGradient598">
      <stop
         style="stop-color:#00ffff;stop-opacity:1"
         offset="0"
         id="stop594" />
      <stop
         style="stop-color:#c87137;stop-opacity:1"
         offset="1"
         id="stop596" />
    </linearGradient>
    <linearGradient
       inkscape:collect="always"
       id="linearGradient580">
      <stop
         style="stop-color:#00ffff;stop-opacity:1"
         offset="0"
         id="stop576" />
      <stop
         style="stop-color:#c87137;stop-opacity:1"
         offset="1"
         id="stop578" />
    </linearGradient>
    <rect
       x="15.501633"
       y="126.15122"
       width="123.74579"
       height="47.039436"
       id="rect2331" />
    <rect
       x="-232.07738"
       y="30.994047"
       width="151.94643"
       height="109.6131"
       id="rect2325" />
    <linearGradient
       inkscape:collect="always"
       xlink:href="#linearGradient580"
       id="linearGradient582"
       x1="13.758333"
       y1="224.89583"
       x2="232.30417"
       y2="252.41251"
       gradientUnits="userSpaceOnUse"
       gradientTransform="translate(-276.75416,-241.3)" />
    <linearGradient
       inkscape:collect="always"
       xlink:href="#linearGradient622"
       id="linearGradient584"
       x1="13.758333"
       y1="224.89583"
       x2="232.30417"
       y2="252.41251"
       gradientUnits="userSpaceOnUse"
       gradientTransform="translate(-276.75416,-241.3)" />
    <linearGradient
       inkscape:collect="always"
       xlink:href="#linearGradient616"
       id="linearGradient586"
       x1="13.758333"
       y1="224.89583"
       x2="232.30417"
       y2="252.41251"
       gradientUnits="userSpaceOnUse"
       gradientTransform="translate(-276.75416,-241.3)" />
    <linearGradient
       inkscape:collect="always"
       xlink:href="#linearGradient610"
       id="linearGradient588"
       x1="13.758333"
       y1="224.89583"
       x2="232.30417"
       y2="252.41251"
       gradientUnits="userSpaceOnUse"
       gradientTransform="translate(-276.75416,-241.3)" />
    <linearGradient
       inkscape:collect="always"
       xlink:href="#linearGradient604"
       id="linearGradient590"
       x1="13.758333"
       y1="224.89583"
       x2="232.30417"
       y2="252.41251"
       gradientUnits="userSpaceOnUse"
       gradientTransform="translate(-276.75416,-241.3)" />
    <linearGradient
       inkscape:collect="always"
       xlink:href="#linearGradient598"
       id="linearGradient592"
       x1="13.758333"
       y1="224.89583"
       x2="232.30417"
       y2="252.41251"
       gradientUnits="userSpaceOnUse"
       gradientTransform="translate(-276.75416,-241.3)" />
    <filter
       inkscape:collect="always"
       style="color-interpolation-filters:sRGB"
       id="filter320"
       x="-8.9177265e-07"
       width="1.0000018"
       y="-1.8338374e-06"
       height="1.0000037">
      <feGaussianBlur
         inkscape:collect="always"
         stdDeviation="0.00024589707"
         id="feGaussianBlur322" />
    </filter>
    <linearGradient
       inkscape:collect="always"
       xlink:href="#linearGradient428"
       id="linearGradient372"
       x1="19.14653"
       y1="236.53749"
       x2="216.98802"
       y2="238.30836"
       gradientUnits="userSpaceOnUse" />
    <linearGradient
       inkscape:collect="always"
       xlink:href="#linearGradient470"
       id="linearGradient374"
       x1="19.14653"
       y1="236.53749"
       x2="216.98802"
       y2="238.30836"
       gradientUnits="userSpaceOnUse" />
    <linearGradient
       inkscape:collect="always"
       xlink:href="#linearGradient464"
       id="linearGradient376"
       x1="19.14653"
       y1="236.53749"
       x2="216.98802"
       y2="238.30836"
       gradientUnits="userSpaceOnUse" />
    <linearGradient
       inkscape:collect="always"
       xlink:href="#linearGradient458"
       id="linearGradient378"
       x1="19.14653"
       y1="236.53749"
       x2="216.98802"
       y2="238.30836"
       gradientUnits="userSpaceOnUse" />
    <linearGradient
       inkscape:collect="always"
       xlink:href="#linearGradient452"
       id="linearGradient380"
       x1="19.14653"
       y1="236.53749"
       x2="216.98802"
       y2="238.30836"
       gradientUnits="userSpaceOnUse" />
    <linearGradient
       inkscape:collect="always"
       xlink:href="#linearGradient446"
       id="linearGradient382"
       x1="19.14653"
       y1="236.53749"
       x2="216.98802"
       y2="238.30836"
       gradientUnits="userSpaceOnUse" />
    <linearGradient
       inkscape:collect="always"
       xlink:href="#linearGradient440"
       id="linearGradient384"
       x1="19.14653"
       y1="236.53749"
       x2="216.98802"
       y2="238.30836"
       gradientUnits="userSpaceOnUse" />
    <linearGradient
       inkscape:collect="always"
       xlink:href="#linearGradient434"
       id="linearGradient386"
       x1="19.14653"
       y1="236.53749"
       x2="216.98802"
       y2="238.30836"
       gradientUnits="userSpaceOnUse" />
  </defs>
  <sodipodi:namedview
     id="base"
     pagecolor="#ffffff"
     bordercolor="#666666"
     borderopacity="1.0"
     inkscape:pageopacity="0.0"
     inkscape:pageshadow="2"
     inkscape:zoom="0.5"
     inkscape:cx="346.6197"
     inkscape:cy="-48.415666"
     inkscape:document-units="mm"
     inkscape:current-layer="layer2"
     inkscape:document-rotation="0"
     showgrid="false"
     inkscape:window-width="1279"
     inkscape:window-height="1198"
     inkscape:window-x="934"
     inkscape:window-y="70"
     inkscape:window-maximized="0"
     fit-margin-top="0"
     fit-margin-left="0"
     fit-margin-right="0"
     fit-margin-bottom="0" />
  <metadata
     id="metadata1627">
    <rdf:RDF>
      <cc:Work
         rdf:about="">
        <dc:format>image/svg+xml</dc:format>
        <dc:type
           rdf:resource="http://purl.org/dc/dcmitype/StillImage" />
        <dc:title />
      </cc:Work>
    </rdf:RDF>
  </metadata>
  <g
     inkscape:groupmode="layer"
     id="layer2"
     inkscape:label="bakgrunn"
     style="display:inline;filter:url(#filter320)"
     transform="translate(-35.02153,-196.84999)">
    <rect
       style="fill:#f9f9f9;stroke-width:0.264583"
       id="rect5926"
       width="180.97499"
       height="89.958336"
       x="-37.570835"
       y="-17.991674" />
    <rect
       id="rect8280-7-2"
       x="-457.03772"
       y="119.4799"
       class="st0"
       width="160.26389"
       height="156.03116"
       style="fill:#333333;stroke-width:0.926717" />
    <path
       d="m 53.245968,222.77924 v 10.70503 H 39.83693 v -10.70503 h -4.8154 v 25.92908 h 4.8154 v -11.11246 h 13.409038 v 11.11246 h 4.8154 v -25.92908 z"
       style="font-style:normal;font-variant:normal;font-weight:600;font-stretch:normal;font-size:10.5833px;line-height:1.05;font-family:Montserrat;-inkscape-font-specification:'Montserrat Semi-Bold';white-space:pre;fill:url(#linearGradient372);fill-opacity:1;stroke:none;stroke-width:3.5"
       id="path51-3"
       inkscape:export-xdpi="96"
       inkscape:export-ydpi="96" />
    <path
       d="m 116.65275,243.73758 c -1.66687,0.9631 -3.4819,1.3335 -5.33398,1.3335 -5.48215,0 -9.37151,-3.8523 -9.37151,-9.11221 0,-5.37103 3.88936,-9.11221 9.40855,-9.11221 2.77812,0 5.11173,0.92603 7.14902,2.96331 l 3.0374,-2.96331 c -2.44474,-2.77812 -6.07481,-4.22275 -10.40867,-4.22275 -8.1121,0 -14.038742,5.59328 -14.038742,13.33496 0,7.74168 5.926642,13.33496 13.964662,13.33496 3.66711,0 7.44535,-1.11125 10.14938,-3.29672 v -10.33458 h -4.55611 z"
       style="font-style:normal;font-variant:normal;font-weight:600;font-stretch:normal;font-size:10.5833px;line-height:1.05;font-family:Montserrat;-inkscape-font-specification:'Montserrat Semi-Bold';white-space:pre;fill:url(#linearGradient374);fill-opacity:1;stroke:none;stroke-width:3.5"
       id="path55-9"
       inkscape:export-xdpi="96"
       inkscape:export-ydpi="96" />
    <path
       d="m 146.9527,248.92339 h 5.03765 l -11.70512,-25.92907 h -4.74132 l -11.66809,25.92907 h 4.96357 l 2.55587,-6.00071 h 12.96454 z m -13.92762,-9.77896 4.85245,-11.33471 4.88948,11.33471 z"
       style="font-style:normal;font-variant:normal;font-weight:600;font-stretch:normal;font-size:10.5833px;line-height:1.05;font-family:Montserrat;-inkscape-font-specification:'Montserrat Semi-Bold';white-space:pre;fill:url(#linearGradient376);fill-opacity:1;stroke:none;stroke-width:3.5"
       id="path57-8"
       inkscape:export-xdpi="96"
       inkscape:export-ydpi="96" />
    <path
       d="m 173.54848,222.99432 v 17.55771 l -14.29804,-17.55771 h -3.96345 v 25.92907 h 4.77836 v -17.55767 l 14.29803,17.55767 h 3.96345 v -25.92907 z"
       style="font-style:normal;font-variant:normal;font-weight:600;font-stretch:normal;font-size:10.5833px;line-height:1.05;font-family:Montserrat;-inkscape-font-specification:'Montserrat Semi-Bold';white-space:pre;fill:url(#linearGradient378);fill-opacity:1;stroke:none;stroke-width:3.5"
       id="path59-7"
       inkscape:export-xdpi="96"
       inkscape:export-ydpi="96" />
    <path
       d="m 190.10602,244.88586 v -7.14899 h 12.52004 v -3.96347 h -12.52004 v -6.74155 h 14.11282 v -4.03753 h -18.92822 v 25.92907 h 19.44681 v -4.03753 z"
       style="font-style:normal;font-variant:normal;font-weight:600;font-stretch:normal;font-size:10.5833px;line-height:1.05;font-family:Montserrat;-inkscape-font-specification:'Montserrat Semi-Bold';white-space:pre;fill:url(#linearGradient380);fill-opacity:1;stroke:none;stroke-width:3.5"
       id="path61-7"
       inkscape:export-xdpi="96"
       inkscape:export-ydpi="96" />
    <path
       id="rect257-1-6"
       style="fill:url(#linearGradient382);fill-opacity:1;stroke-width:0.92604"
       d="m 71.346083,226.33143 -9.580547,22.37689 h 4.964811 l 2.45618,-5.72806 h 9.294779 l -1.788779,-4.17442 h -5.71722 l 2.859513,-6.6704 z"
       sodipodi:nodetypes="ccccccccc"
       inkscape:export-xdpi="96"
       inkscape:export-ydpi="96" />
    <path
       id="rect257-32"
       style="fill:url(#linearGradient384);fill-opacity:1;stroke-width:0.92604"
       d="M 83.919913,196.84999 72.81827,222.77914 h -0.0126 l 11.114309,25.92918 h 4.964805 L 77.783141,222.77914 88.897454,196.84999 h -0.0126 -0.01435 z"
       inkscape:export-xdpi="96"
       inkscape:export-ydpi="96" />
    <path
       id="rect257-3-1"
       style="fill:url(#linearGradient386);fill-opacity:1;stroke-width:0.92604"
       d="m 85.797375,222.77917 11.101643,25.92915 h 0.0126 L 85.797302,274.6375 H 80.832497 L 91.934144,248.70832 80.819831,222.77917 h 0.0126 0.01435 z"
       inkscape:export-xdpi="96"
       inkscape:export-ydpi="96" />
    <path
       d="m -233.32101,-20.372842 v 10.7050299 h -13.40903 V -20.372842 h -4.8154 V 5.5562379 h 4.8154 v -11.11246 h 13.40903 v 11.11246 h 4.8154 V -20.372842 Z"
       style="font-style:normal;font-variant:normal;font-weight:600;font-stretch:normal;font-size:10.5833px;line-height:1.05;font-family:Montserrat;-inkscape-font-specification:'Montserrat Semi-Bold';white-space:pre;display:inline;fill:url(#linearGradient582);fill-opacity:1;stroke:none;stroke-width:3.49999"
       id="path51-3-5"
       inkscape:export-xdpi="96"
       inkscape:export-ydpi="96" />
    <path
       d="m -169.91423,0.58549788 c -1.66687,0.96310002 -3.4819,1.33350002 -5.33398,1.33350002 -5.48215,0 -9.37151,-3.8523 -9.37151,-9.11221 0,-5.3710199 3.88936,-9.1122099 9.40855,-9.1122099 2.77812,0 5.11173,0.92603 7.14902,2.96331 l 3.03741,-2.96331 c -2.44475,-2.77812 -6.07482,-4.22275 -10.40868,-4.22275 -8.1121,0 -14.03874,5.59328 -14.03874,13.3349599 0,7.74167998 5.92664,13.33496 13.96466,13.33496 3.66711,0 7.44535,-1.11125 10.14939,-3.29672 v -10.33458 h -4.55612 z"
       style="font-style:normal;font-variant:normal;font-weight:600;font-stretch:normal;font-size:10.5833px;line-height:1.05;font-family:Montserrat;-inkscape-font-specification:'Montserrat Semi-Bold';white-space:pre;display:inline;fill:url(#linearGradient586);fill-opacity:1;stroke:none;stroke-width:3.49999"
       id="path55-9-3"
       inkscape:export-xdpi="96"
       inkscape:export-ydpi="96" />
    <path
       d="m -139.61428,5.7713079 h 5.03765 l -11.70512,-25.9290699 h -4.74132 l -11.66808,25.9290699 h 4.96357 l 2.55587,-6.00071002 h 12.96453 z m -13.92761,-9.77896 4.85244,-11.3347099 4.88949,11.3347099 z"
       style="font-style:normal;font-variant:normal;font-weight:600;font-stretch:normal;font-size:10.5833px;line-height:1.05;font-family:Montserrat;-inkscape-font-specification:'Montserrat Semi-Bold';white-space:pre;display:inline;fill:url(#linearGradient588);fill-opacity:1;stroke:none;stroke-width:3.49999"
       id="path57-8-6"
       inkscape:export-xdpi="96"
       inkscape:export-ydpi="96" />
    <path
       d="m -113.0185,-20.157762 v 17.5577099 l -14.29803,-17.5577099 h -3.96345 V 5.7713079 h 4.77835 V -11.786362 l 14.29803,17.5576699 h 3.96346 V -20.157762 Z"
       style="font-style:normal;font-variant:normal;font-weight:600;font-stretch:normal;font-size:10.5833px;line-height:1.05;font-family:Montserrat;-inkscape-font-specification:'Montserrat Semi-Bold';white-space:pre;display:inline;fill:url(#linearGradient590);fill-opacity:1;stroke:none;stroke-width:3.49999"
       id="path59-7-1"
       inkscape:export-xdpi="96"
       inkscape:export-ydpi="96" />
    <path
       d="m -96.460965,1.7337779 v -7.14899 h 12.52005 v -3.96347 h -12.52005 v -6.7415499 h 14.11282 v -4.03753 H -101.27636 V 5.7713079 h 19.446805 v -4.03753 z"
       style="font-style:normal;font-variant:normal;font-weight:600;font-stretch:normal;font-size:10.5833px;line-height:1.05;font-family:Montserrat;-inkscape-font-specification:'Montserrat Semi-Bold';white-space:pre;display:inline;fill:url(#linearGradient592);fill-opacity:1;stroke:none;stroke-width:3.49999"
       id="path61-7-5"
       inkscape:export-xdpi="96"
       inkscape:export-ydpi="96" />
    <path
       id="rect257-1-6-9"
       style="display:inline;fill:url(#linearGradient584);fill-opacity:1;stroke-width:0.926039"
       d="m -215.22089,-16.820652 -9.58055,22.3768899 h 4.96481 l 2.45618,-5.72806002 h 9.29478 l -1.78878,-4.17441998 h -5.71722 l 2.85951,-6.6703999 z"
       sodipodi:nodetypes="ccccccccc"
       inkscape:export-xdpi="96"
       inkscape:export-ydpi="96" />
    <path
       id="rect257-32-0"
       style="display:inline;fill:#808080;fill-opacity:1;stroke-width:0.926039"
       d="m -202.64706,-46.302092 -11.10165,25.92915 h -0.0126 L -202.647,5.5562379 h 4.96481 l -11.10166,-25.9291799 11.11432,-25.92915 h -0.0126 -0.0143 z"
       inkscape:export-xdpi="96"
       inkscape:export-ydpi="96" />
    <path
       id="rect257-3-1-3"
       style="display:inline;fill:#808080;fill-opacity:1;stroke-width:0.926039"
       d="m -200.7696,-20.372912 11.10164,25.9291499 h 0.0126 l -11.11431,25.9291801 h -4.9648 l 11.10164,-25.9291801 -11.11432,-25.9291499 h 0.0126 0.0143 z"
       inkscape:export-xdpi="96"
       inkscape:export-ydpi="96" />
    <g
       aria-label="PETER"
       id="text626"
       style="font-style:normal;font-variant:normal;font-weight:600;font-stretch:normal;font-size:36.8871px;line-height:1.25;font-family:Montserrat;-inkscape-font-specification:'Montserrat Semi-Bold';fill:#ececec;fill-opacity:1;stroke:none;stroke-width:0.922181"
       transform="translate(-89.26979,-9.8088867)">
      <path
         d="m -75.676912,222.64207 h -10.623485 v 25.82097 h 4.795323 v -7.45119 h 5.828162 c 6.787227,0 10.992356,-3.50428 10.992356,-9.18489 0,-5.7175 -4.205129,-9.18489 -10.992356,-9.18489 z m -0.221322,14.3122 h -5.60684 v -10.25462 h 5.60684 c 4.205129,0 6.381468,1.88125 6.381468,5.12731 0,3.24607 -2.176339,5.12731 -6.381468,5.12731 z"
         style="font-style:normal;font-variant:normal;font-weight:600;font-stretch:normal;font-family:Montserrat;-inkscape-font-specification:'Montserrat Semi-Bold';fill:#ececec;fill-opacity:1;stroke-width:0.922181"
         id="path646" />
      <path
         d="m -55.093924,244.44235 v -7.11921 h 12.46784 v -3.94692 h -12.46784 v -6.71345 h 14.053985 v -4.0207 h -18.849308 v 25.82097 h 19.365728 v -4.02069 z"
         style="font-style:normal;font-variant:normal;font-weight:600;font-stretch:normal;font-family:Montserrat;-inkscape-font-specification:'Montserrat Semi-Bold';fill:#ececec;fill-opacity:1;stroke-width:0.922181"
         id="path648" />
      <path
         d="m -29.93699,248.46304 h 4.795323 v -21.76339 h 8.557808 v -4.05758 h -21.910938 v 4.05758 h 8.557807 z"
         style="font-style:normal;font-variant:normal;font-weight:600;font-stretch:normal;font-family:Montserrat;-inkscape-font-specification:'Montserrat Semi-Bold';fill:#ececec;fill-opacity:1;stroke-width:0.922181"
         id="path650" />
      <path
         d="m -8.1736299,244.44235 v -7.11921 H 4.29421 v -3.94692 H -8.1736299 v -6.71345 H 5.8803553 v -4.0207 H -12.968953 v 25.82097 H 6.3967747 v -4.02069 z"
         style="font-style:normal;font-variant:normal;font-weight:600;font-stretch:normal;font-family:Montserrat;-inkscape-font-specification:'Montserrat Semi-Bold';fill:#ececec;fill-opacity:1;stroke-width:0.922181"
         id="path652" />
      <path
         d="m 33.80382,248.46304 -5.938823,-8.48403 c 3.504274,-1.36482 5.496178,-4.24202 5.496178,-8.15205 0,-5.7175 -4.20513,-9.18489 -10.992356,-9.18489 H 11.745334 v 25.82097 h 4.795323 v -7.52497 h 5.828162 c 0.331984,0 0.663968,0 0.995951,-0.0369 l 5.274856,7.56185 z m -5.274856,-16.63608 c 0,3.24607 -2.176338,5.1642 -6.381468,5.1642 h -5.606839 v -10.29151 h 5.606839 c 4.20513,0 6.381468,1.88125 6.381468,5.12731 z"
         style="font-style:normal;font-variant:normal;font-weight:600;font-stretch:normal;font-family:Montserrat;-inkscape-font-specification:'Montserrat Semi-Bold';fill:#ececec;fill-opacity:1;stroke-width:0.922181"
         id="path654" />
    </g>
    <text
       xml:space="preserve"
       style="font-style:normal;font-variant:normal;font-weight:600;font-stretch:normal;font-size:36.8871px;line-height:1.25;font-family:Montserrat;-inkscape-font-specification:'Montserrat Semi-Bold';display:inline;fill:#808080;fill-opacity:1;stroke:none;stroke-width:0.922181"
       x="-201.21675"
       y="167.07153"
       id="text626-0"><tspan
         sodipodi:role="line"
         id="tspan624-1"
         x="-201.21675"
         y="167.07153"
         style="font-style:normal;font-variant:normal;font-weight:600;font-stretch:normal;font-family:Montserrat;-inkscape-font-specification:'Montserrat Semi-Bold';fill:#808080;fill-opacity:1;stroke-width:0.922181">PETER</tspan></text>
  </g>
  <g
     inkscape:label="Lag 1"
     inkscape:groupmode="layer"
     id="layer1"
     transform="translate(-35.02153,-196.84999)">
    <rect
       id="rect8280-7"
       x="237.71211"
       y="136.50136"
       class="st0"
       width="66.114441"
       height="46.302803"
       style="fill:#333333;stroke-width:0.324248" />
    <path
       id="path6792-0-8-1"
       inkscape:connector-curvature="0"
       sodipodi:nodetypes="cccscccssccscs"
       class="st4"
       d="m 257.85751,156.9288 c 2.20488,0 3.76128,1.39427 3.79371,3.37219 0,1.07002 -0.32425,1.88064 -0.94032,2.49672 -0.64851,0.61607 -1.62126,0.9079 -2.91825,0.9079 h -2.26974 v -6.80924 h 2.3346 z m 2.65883,3.37219 c 0,-1.5564 -0.90789,-2.3346 -2.69126,-2.3346 h -1.13487 v 4.66919 h 1.26457 c 0.81062,0 1.45912,-0.19454 1.88065,-0.58364 0.45394,-0.38911 0.68091,-0.97276 0.68091,-1.75095 z"
       style="fill:#ececec;stroke-width:0.324248" />
    <path
       id="path6794-9-5-8"
       inkscape:connector-curvature="0"
       class="st4"
       d="m 264.82887,157.73942 0.61607,1.39427 v 0 l -0.87548,1.97792 h 1.71852 l 0.45395,1.07002 h -2.65884 l -0.68092,1.5564 h -1.23215 z"
       style="fill:#ececec;stroke-width:0.324248" />
    <path
       id="path6796-9-2-1"
       inkscape:connector-curvature="0"
       sodipodi:nodetypes="cccccccccccccccccc"
       class="st4"
       d="m 272.31902,156.9288 v 6.80923 h 1.13488 v -2.59399 -0.19455 -1.07002 -2.95067 z m 4.50707,0 v 2.95067 h -2.52915 v 0.55122 0.55122 h 2.52915 v 2.78855 h 1.13486 v -6.80924 h -1.13486 z"
       style="fill:#ececec;stroke-width:0.324248" />
    <path
       id="path6798-4-5-0"
       inkscape:connector-curvature="0"
       class="st4"
       d="m 279.87404,163.70561 v -6.80924 h 1.13487 v 5.70679 h 3.11279 v 1.10245 z"
       style="fill:#ececec;stroke-width:0.324248" />
    <path
       id="path6794-9-3-5-5-5-2-6-0"
       inkscape:connector-curvature="0"
       class="st10"
       d="m 267.22831,156.9288 2.98309,6.80923 -2.98309,6.80923 h 1.23214 c 1.00518,-2.26974 2.0752,-4.70161 2.9831,-6.80923 -0.9079,-2.10762 -1.97792,-4.50707 -2.9831,-6.80923 z"
       style="fill:#808080;stroke-width:0.324248" />
    <path
       id="path6794-9-3-5-5-5-2-6-9"
       inkscape:connector-curvature="0"
       class="st10"
       d="m 269.4332,150.11956 -2.98308,6.80924 2.98308,6.80923 h -1.23214 c -1.00517,-2.26974 -2.0752,-4.70161 -2.9831,-6.80923 0.9079,-2.10762 1.97793,-4.50707 2.9831,-6.80924 z"
       style="fill:#808080;stroke-width:0.324248" />
    <text
       style="font-size:9.7275px;font-family:ArialMT;stroke-width:0.324248"
       id="text652"
       x="305.44708"
       y="161.98369">b</text>
    <text
       xml:space="preserve"
       id="text2323"
       style="font-style:normal;font-weight:normal;font-size:10.5833px;line-height:1.25;font-family:sans-serif;white-space:pre;shape-inside:url(#rect2325);fill:#000000;fill-opacity:1;stroke:none;"
       transform="matrix(4.9447082,0,0,4.9447082,876.4029,-104.37111)"><tspan
         x="-232.07812"
         y="40.649606"><tspan>Hagane</tspan></tspan></text>
    <path
       d="m 18.806781,16.651791 v 3.05858 h -3.831155 v -3.05858 h -1.375829 v 7.40831 h 1.375829 v -3.17499 h 3.831155 v 3.17499 h 1.375829 v -7.40831 z"
       style="font-style:normal;font-variant:normal;font-weight:600;font-stretch:normal;font-size:10.5833px;line-height:1.05;font-family:Montserrat;-inkscape-font-specification:'Montserrat Semi-Bold';white-space:pre;fill:#ececec;fill-opacity:1;stroke:none"
       id="path51"
       inkscape:export-xdpi="96"
       inkscape:export-ydpi="96" />
    <path
       d="m 36.92301,22.639891 c -0.476248,0.27517 -0.99483,0.381 -1.523995,0.381 -1.566328,0 -2.677575,-1.10066 -2.677575,-2.60349 0,-1.53458 1.111247,-2.60349 2.688159,-2.60349 0.793747,0 1.460495,0.26458 2.042576,0.84666 l 0.867831,-0.84666 c -0.698498,-0.79375 -1.735661,-1.2065 -2.973907,-1.2065 -2.317743,0 -4.011071,1.59808 -4.011071,3.80999 0,2.21191 1.693328,3.80999 3.989904,3.80999 1.047747,0 2.127243,-0.3175 2.899824,-0.94192 v -2.95274 H 36.92301 Z"
       style="font-style:normal;font-variant:normal;font-weight:600;font-stretch:normal;font-size:10.5833px;line-height:1.05;font-family:Montserrat;-inkscape-font-specification:'Montserrat Semi-Bold';white-space:pre;fill:#ececec;fill-opacity:1;stroke:none"
       id="path55"
       inkscape:export-xdpi="96"
       inkscape:export-ydpi="96" />
    <path
       d="m 45.580142,24.121551 h 1.439328 l -3.344322,-7.40831 h -1.354663 l -3.333739,7.40831 h 1.418162 l 0.730248,-1.71449 h 3.704155 z m -3.979321,-2.79399 1.386412,-3.23849 1.396996,3.23849 z"
       style="font-style:normal;font-variant:normal;font-weight:600;font-stretch:normal;font-size:10.5833px;line-height:1.05;font-family:Montserrat;-inkscape-font-specification:'Montserrat Semi-Bold';white-space:pre;fill:#ececec;fill-opacity:1;stroke:none"
       id="path57"
       inkscape:export-xdpi="96"
       inkscape:export-ydpi="96" />
    <path
       d="m 53.178936,16.713241 v 5.01649 l -4.085154,-5.01649 h -1.132413 v 7.40831 h 1.365245 v -5.01648 l 4.085154,5.01648 h 1.132413 v -7.40831 z"
       style="font-style:normal;font-variant:normal;font-weight:600;font-stretch:normal;font-size:10.5833px;line-height:1.05;font-family:Montserrat;-inkscape-font-specification:'Montserrat Semi-Bold';white-space:pre;fill:#ececec;fill-opacity:1;stroke:none"
       id="path59"
       inkscape:export-xdpi="96"
       inkscape:export-ydpi="96" />
    <path
       d="m 57.909666,22.967971 v -2.04257 h 3.577155 v -1.13242 h -3.577155 v -1.92616 h 4.032237 v -1.15358 h -5.408066 v 7.40831 h 5.556232 v -1.15358 z"
       style="font-style:normal;font-variant:normal;font-weight:600;font-stretch:normal;font-size:10.5833px;line-height:1.05;font-family:Montserrat;-inkscape-font-specification:'Montserrat Semi-Bold';white-space:pre;fill:#ececec;fill-opacity:1;stroke:none"
       id="path61"
       inkscape:export-xdpi="96"
       inkscape:export-ydpi="96" />
    <text
       xml:space="preserve"
       style="font-style:normal;font-weight:normal;font-size:10.5833px;line-height:1.25;font-family:sans-serif;fill:#ececec;fill-opacity:1;stroke:none;stroke-width:0.264583"
       x="-424.83661"
       y="166.67133"
       id="text2354"><tspan
         sodipodi:role="line"
         id="tspan2352"
         x="-424.83661"
         y="166.67133"
         style="font-style:normal;font-variant:normal;font-weight:600;font-stretch:normal;font-family:Montserrat;-inkscape-font-specification:'Montserrat Semi-Bold';fill:#ececec;fill-opacity:1;stroke-width:0.264583">Hagane</tspan></text>
    <path
       id="path6792-0-8-1-0"
       inkscape:connector-curvature="0"
       sodipodi:nodetypes="cccscccssccscs"
       class="st4"
       d="m -414.61805,183.57919 c 2.20488,0 3.76128,1.39427 3.79371,3.37219 0,1.07002 -0.32425,1.88064 -0.94032,2.49672 -0.64851,0.61607 -1.62126,0.9079 -2.91825,0.9079 h -2.26974 v -6.80924 h 2.3346 z m 2.65883,3.37219 c 0,-1.5564 -0.90789,-2.3346 -2.69126,-2.3346 h -1.13487 v 4.66919 h 1.26457 c 0.81062,0 1.45912,-0.19454 1.88065,-0.58364 0.45394,-0.38911 0.68091,-0.97276 0.68091,-1.75095 z"
       style="fill:#ececec;stroke-width:0.324247" />
    <path
       id="path6794-9-5-8-2"
       inkscape:connector-curvature="0"
       class="st4"
       d="m -407.64669,184.38981 0.61607,1.39427 v 0 l -0.87548,1.97792 h 1.71852 l 0.45395,1.07002 h -2.65884 l -0.68092,1.5564 h -1.23215 z"
       style="fill:#ececec;stroke-width:0.324247" />
    <path
       id="path6796-9-2-1-2"
       inkscape:connector-curvature="0"
       sodipodi:nodetypes="cccccccccccccccccc"
       class="st4"
       d="m -400.15654,183.57919 v 6.80923 h 1.13488 v -2.59399 -0.19455 -1.07002 -2.95067 z m 4.50707,0 v 2.95067 h -2.52915 v 0.55122 0.55122 h 2.52915 v 2.78855 h 1.13486 v -6.80924 h -1.13486 z"
       style="fill:#ececec;stroke-width:0.324247" />
    <path
       id="path6798-4-5-0-8"
       inkscape:connector-curvature="0"
       class="st4"
       d="m -392.60152,190.356 v -6.80924 h 1.13487 v 5.70679 h 3.11279 v 1.10245 z"
       style="fill:#ececec;stroke-width:0.324247" />
    <path
       id="path6794-9-3-5-5-5-2-6-0-5"
       inkscape:connector-curvature="0"
       class="st10"
       d="m -405.24725,183.57919 2.98309,6.80923 -2.98309,6.80923 h 1.23214 c 1.00518,-2.26974 2.0752,-4.70161 2.9831,-6.80923 -0.9079,-2.10762 -1.97792,-4.50707 -2.9831,-6.80923 z"
       style="fill:#808080;stroke-width:0.324247" />
    <path
       id="path6794-9-3-5-5-5-2-6-9-4"
       inkscape:connector-curvature="0"
       class="st10"
       d="m -403.04236,176.76995 -2.98308,6.80924 2.98308,6.80923 h -1.23214 c -1.00517,-2.26974 -2.0752,-4.70161 -2.9831,-6.80923 0.9079,-2.10762 1.97793,-4.50707 2.9831,-6.80924 z"
       style="fill:#808080;stroke-width:0.324247" />
    <path
       id="path6794-9-3-5-5-5-2-6-0-5-5"
       inkscape:connector-curvature="0"
       class="st10"
       d="m -396.16717,203.75517 2.98309,6.80923 -2.98309,6.80923 h 1.23214 c 1.00518,-2.26974 2.0752,-4.70161 2.9831,-6.80923 -0.9079,-2.10762 -1.97792,-4.50707 -2.9831,-6.80923 z"
       style="fill:#808080;stroke-width:0.324247" />
    <path
       id="path6794-9-3-5-5-5-2-6-9-4-3"
       inkscape:connector-curvature="0"
       class="st10"
       d="m -406.18515,203.75516 -2.98308,6.80924 2.98308,6.80923 h -1.23214 c -1.00517,-2.26974 -2.0752,-4.70161 -2.9831,-6.80923 0.9079,-2.10762 1.97793,-4.50707 2.9831,-6.80924 z"
       style="fill:#808080;stroke-width:0.324247" />
    <path
       id="path6794-9-3-5-5-5-2-6-0-5-2"
       inkscape:connector-curvature="0"
       class="st10"
       d="m -410.40039,210.5644 -2.98309,6.80923 h 1.23214 c 1.00518,-2.26974 2.0752,-4.70161 2.9831,-6.80923 z"
       style="fill:#808080;stroke-width:0.324247"
       sodipodi:nodetypes="ccccc" />
    <path
       id="path6794-9-3-5-5-5-2-6-0-5-2-2"
       inkscape:connector-curvature="0"
       class="st10"
       d="m -402.6729,210.5644 -2.98309,6.80923 h 1.23214 c 1.00518,-2.26974 2.0752,-4.70161 2.9831,-6.80923 z"
       style="fill:#808080;stroke-width:0.324247"
       sodipodi:nodetypes="ccccc" />
    <path
       id="path6794-9-3-5-5-5-2-6-0-5-2-2-2"
       inkscape:connector-curvature="0"
       class="st10"
       d="m -401.44075,210.5644 2.98309,6.80923 h -1.23214 c -1.00518,-2.26974 -2.0752,-4.70161 -2.9831,-6.80923 z"
       style="fill:#808080;stroke-width:0.324247"
       sodipodi:nodetypes="ccccc" />
    <path
       id="path6794-9-3-5-5-5-2-6-0-5-2-2-6"
       inkscape:connector-curvature="0"
       class="st10"
       d="m -394.41623,210.5644 -2.98309,6.80923 h 1.23214 c 1.00518,-2.26974 2.0752,-4.70161 2.9831,-6.80923 z"
       style="fill:#808080;stroke-width:0.324247"
       sodipodi:nodetypes="ccccc" />
    <path
       id="path6794-9-3-5-5-5-2-6-0-5-2-2-5"
       inkscape:connector-curvature="0"
       class="st10"
       d="m -386.68874,210.5644 -2.98309,6.80923 h 1.23214 c 1.00518,-2.26974 2.0752,-4.70161 2.9831,-6.80923 z"
       style="fill:#808080;stroke-width:0.324247"
       sodipodi:nodetypes="ccccc" />
    <path
       id="path6794-9-3-5-5-5-2-6-0-5-2-2-2-3"
       inkscape:connector-curvature="0"
       class="st10"
       d="m -385.45659,210.5644 2.98309,6.80923 h -1.23214 c -1.00518,-2.26974 -2.0752,-4.70161 -2.9831,-6.80923 z"
       style="fill:#808080;stroke-width:0.324247"
       sodipodi:nodetypes="ccccc" />
    <path
       id="path6794-9-3-5-5-5-2-6-0-5-2-25"
       inkscape:connector-curvature="0"
       class="st10"
       d="m -378.96124,210.56439 -2.98309,6.80924 h 1.23214 c 1.00518,-2.26974 2.0752,-4.70162 2.9831,-6.80924 z"
       style="fill:#808080;stroke-width:0.324247"
       sodipodi:nodetypes="ccccc" />
    <path
       id="path6794-9-3-5-5-5-2-6-0-5-2-2-2-34"
       inkscape:connector-curvature="0"
       class="st10"
       d="m -377.72909,210.56439 2.98309,6.80923 h -1.23214 c -1.00518,-2.26974 -2.0752,-4.70161 -2.9831,-6.80923 z"
       style="fill:#808080;stroke-width:0.324247"
       sodipodi:nodetypes="ccccc" />
    <path
       id="path6794-9-3-5-5-5-2-6-0-5-2-0"
       inkscape:connector-curvature="0"
       class="st10"
       d="m -372.99505,210.56439 -2.98309,6.80923 h 1.23214 c 1.00518,-2.26974 2.0752,-4.70161 2.9831,-6.80923 z"
       style="fill:#808080;stroke-width:0.324247"
       sodipodi:nodetypes="ccccc" />
    <path
       id="path6794-9-3-5-5-5-2-6-0-5-2-0-2"
       inkscape:connector-curvature="0"
       class="st10"
       d="m -370.1754,210.56439 -2.98309,6.80923 h 1.23214 c 1.00518,-2.26974 2.0752,-4.70161 2.9831,-6.80923 z"
       style="fill:#808080;stroke-width:0.324247"
       sodipodi:nodetypes="ccccc" />
    <path
       id="path6794-9-3-5-5-5-2-6-0-5-2-0-2-6"
       inkscape:connector-curvature="0"
       class="st10"
       d="m -370.1754,210.56439 7.43401,0.004 -0.49501,1.12833 c -2.48235,0.009 -5.13921,0.0115 -7.43401,-0.004 z"
       style="fill:#808080;stroke-width:0.324247"
       sodipodi:nodetypes="ccccc" />
    <path
       id="path6794-9-3-5-5-5-2-6-0-5-2-0-2-6-8"
       inkscape:connector-curvature="0"
       class="st10"
       d="m -372.66347,216.24529 7.434,0.004 -0.49501,1.12833 c -2.48234,0.009 -5.13921,0.0115 -7.43401,-0.004 z"
       style="fill:#808080;stroke-width:0.324247"
       sodipodi:nodetypes="ccccc" />
    <g
       aria-label="HAGANE"
       transform="translate(-439.2525,20.85654)"
       id="text2329-5"
       style="font-style:normal;font-weight:normal;font-size:10.5833px;line-height:1.05;font-family:sans-serif;white-space:pre;shape-inside:url(#rect2331);fill:#ececec;fill-opacity:1;stroke:none">
      <path
         d="m 21.703767,127.41079 v 3.05858 h -3.831155 v -3.05858 h -1.375829 v 7.40831 h 1.375829 v -3.17499 h 3.831155 v 3.17499 h 1.375829 v -7.40831 z"
         style="font-style:normal;font-variant:normal;font-weight:600;font-stretch:normal;font-family:Montserrat;-inkscape-font-specification:'Montserrat Semi-Bold';fill:#ececec;fill-opacity:1"
         id="path51-1" />
      <path
         d="m 30.614899,134.8191 h 1.439329 l -3.344323,-7.40831 h -1.354662 l -3.33374,7.40831 h 1.418163 l 0.730247,-1.71449 h 3.704155 z m -3.979321,-2.79399 1.386413,-3.23849 1.396995,3.23849 z"
         style="font-style:normal;font-variant:normal;font-weight:600;font-stretch:normal;font-family:Montserrat;-inkscape-font-specification:'Montserrat Semi-Bold';fill:#ececec;fill-opacity:1"
         id="path53-0" />
      <path
         d="m 37.949109,133.33744 c -0.476248,0.27517 -0.99483,0.381 -1.523995,0.381 -1.566328,0 -2.677575,-1.10066 -2.677575,-2.60349 0,-1.53458 1.111247,-2.60349 2.688159,-2.60349 0.793747,0 1.460495,0.26458 2.042576,0.84666 l 0.867831,-0.84666 c -0.698498,-0.79375 -1.735661,-1.2065 -2.973907,-1.2065 -2.317743,0 -4.011071,1.59808 -4.011071,3.80999 0,2.21191 1.693328,3.80999 3.989904,3.80999 1.047747,0 2.127243,-0.3175 2.899824,-0.94192 v -2.95274 h -1.301746 z"
         style="font-style:normal;font-variant:normal;font-weight:600;font-stretch:normal;font-family:Montserrat;-inkscape-font-specification:'Montserrat Semi-Bold';fill:#ececec;fill-opacity:1"
         id="path55-0" />
      <path
         d="m 46.606241,134.8191 h 1.439328 l -3.344322,-7.40831 h -1.354663 l -3.333739,7.40831 h 1.418162 l 0.730248,-1.71449 h 3.704155 z m -3.979321,-2.79399 1.386412,-3.23849 1.396996,3.23849 z"
         style="font-style:normal;font-variant:normal;font-weight:600;font-stretch:normal;font-family:Montserrat;-inkscape-font-specification:'Montserrat Semi-Bold';fill:#ececec;fill-opacity:1"
         id="path57-6" />
      <path
         d="m 54.205035,127.41079 v 5.01649 l -4.085154,-5.01649 h -1.132413 v 7.40831 h 1.365245 v -5.01648 l 4.085154,5.01648 h 1.132413 v -7.40831 z"
         style="font-style:normal;font-variant:normal;font-weight:600;font-stretch:normal;font-family:Montserrat;-inkscape-font-specification:'Montserrat Semi-Bold';fill:#ececec;fill-opacity:1"
         id="path59-6" />
      <path
         d="m 58.935765,133.66552 v -2.04257 h 3.577155 v -1.13242 h -3.577155 v -1.92616 h 4.032237 v -1.15358 h -5.408066 v 7.40831 h 5.556232 v -1.15358 z"
         style="font-style:normal;font-variant:normal;font-weight:600;font-stretch:normal;font-family:Montserrat;-inkscape-font-specification:'Montserrat Semi-Bold';fill:#ececec;fill-opacity:1"
         id="path61-6" />
    </g>
    <path
       id="path6794-9-5-8-2-8"
       inkscape:connector-curvature="0"
       class="st4"
       d="m -361.44189,175.83798 0.61607,1.39427 v 0 l -0.87548,1.97792 h 1.71852 l 0.45395,1.07002 h -2.65884 l -0.68092,1.5564 h -1.23215 z"
       style="fill:#ececec;stroke-width:0.324247" />
    <path
       id="rect257-1"
       style="fill:#ffffff;fill-opacity:1;stroke-width:0.264583"
       d="m 23.978244,17.666701 -2.7373,6.3934 h 1.418518 l 0.701766,-1.63659 h 2.655652 l -0.51108,-1.19269 h -1.633492 l 0.817004,-1.90583 z"
       sodipodi:nodetypes="ccccccccc"
       inkscape:export-xdpi="96"
       inkscape:export-ydpi="96" />
    <path
       id="rect257"
       style="fill:#808080;fill-opacity:1;stroke-width:0.264583"
       d="m 27.570768,9.2434308 -3.171899,7.4083302 h -0.0036 l 3.175519,7.40834 h 1.418516 l -3.1719,-7.40834 3.175519,-7.4083302 h -0.0036 -0.0041 z"
       inkscape:export-xdpi="96"
       inkscape:export-ydpi="96" />
    <path
       id="rect257-7"
       style="fill:#808080;fill-opacity:1;stroke-width:0.264583"
       d="m -348.4501,174.08162 3.17189,7.40833 h 0.004 l -3.17551,7.40834 h -1.41852 l 3.1719,-7.40834 -3.17552,-7.40833 h 0.004 0.004 z" />
    <path
       id="rect257-3"
       style="fill:#808080;fill-opacity:1;stroke-width:0.264583"
       d="m 28.107186,16.651771 3.171899,7.40833 h 0.0036 l -3.175519,7.40834 H 26.68865 l 3.1719,-7.40834 -3.175519,-7.40833 h 0.0036 0.0041 z"
       inkscape:export-xdpi="96"
       inkscape:export-ydpi="96" />
    <path
       id="path6794-9-5-8-2-3"
       inkscape:connector-curvature="0"
       class="st4"
       d="m -413.73929,196.2039 0.61607,1.39427 v 0 l -0.87548,1.97792 h 1.71852 l 0.45395,1.07002 h -2.65884 l -0.68092,1.5564 h -1.23215 z"
       style="fill:#ececec;stroke-width:0.324247" />
    <path
       id="path6794-9-5-8-2-7"
       inkscape:connector-curvature="0"
       class="st4"
       d="m -359.39923,159.31679 0.64301,1.55451 v 0 l -0.91376,2.20523 h 1.79366 l 0.4738,1.19301 h -2.7751 l -0.71069,1.73526 h -1.28603 z"
       style="fill:#ececec;stroke-width:0.349779" />
    <path
       id="path6794-9-3-5-5-5-2-6-0-5-56"
       inkscape:connector-curvature="0"
       class="st10"
       d="m -337.50739,165.91668 3.11353,7.59181 -3.11353,7.59181 h 1.28602 c 1.04913,-2.5306 2.16594,-5.24196 3.11354,-7.59181 -0.9476,-2.34985 -2.06441,-5.02506 -3.11354,-7.59181 z"
       style="fill:#808080;stroke-width:0.349779" />
    <path
       d="m -350.53778,161.12236 h 1.43933 l -3.34433,-7.40831 h -1.35466 l -3.33374,7.40831 h 1.41816 l 0.73025,-1.71449 h 3.70416 z m -3.97932,-2.79399 1.38641,-3.23849 1.39699,3.23849 z"
       style="font-style:normal;font-variant:normal;font-weight:600;font-stretch:normal;font-size:10.5833px;line-height:1.05;font-family:Montserrat;-inkscape-font-specification:'Montserrat Semi-Bold';white-space:pre;fill:#ececec;fill-opacity:1;stroke:none;stroke-width:1"
       id="path57-0" />
  </g>
</svg>
