<?xml version="1.0" encoding="UTF-8" standalone="no"?>
<svg
   xmlns:dc="http://purl.org/dc/elements/1.1/"
   xmlns:cc="http://creativecommons.org/ns#"
   xmlns:rdf="http://www.w3.org/1999/02/22-rdf-syntax-ns#"
   xmlns:svg="http://www.w3.org/2000/svg"
   xmlns="http://www.w3.org/2000/svg"
   xmlns:sodipodi="http://sodipodi.sourceforge.net/DTD/sodipodi-0.dtd"
   xmlns:inkscape="http://www.inkscape.org/namespaces/inkscape"
   width="171.05209mm"
   height="91.001678mm"
   viewBox="0 0 171.0521 91.001677"
   version="1.1"
   id="svg8"
   inkscape:version="1.0.1 (3bc2e813f5, 2020-09-07)"
   sodipodi:docname="textgraphic.svg">
  <defs
     id="defs2" />
  <sodipodi:namedview
     id="base"
     pagecolor="#ffffff"
     bordercolor="#666666"
     borderopacity="1.0"
     inkscape:pageopacity="0.0"
     inkscape:pageshadow="2"
     inkscape:zoom="0.35355339"
     inkscape:cx="38.10124"
     inkscape:cy="331.99641"
     inkscape:document-units="mm"
     inkscape:current-layer="layer1"
     inkscape:document-rotation="0"
     showgrid="false"
     inkscape:window-width="1267"
     inkscape:window-height="1198"
     inkscape:window-x="900"
     inkscape:window-y="148"
     inkscape:window-maximized="0"
     showguides="true"
     inkscape:guide-bbox="true"
     fit-margin-top="0"
     fit-margin-left="0"
     fit-margin-right="0"
     fit-margin-bottom="0">
    <sodipodi:guide
       position="202.57447,131.2745"
       orientation="1,0"
       id="guide2413" />
  </sodipodi:namedview>
  <metadata
     id="metadata5">
    <rdf:RDF>
      <cc:Work
         rdf:about="">
        <dc:format>image/svg+xml</dc:format>
        <dc:type
           rdf:resource="http://purl.org/dc/dcmitype/StillImage" />
        <dc:title></dc:title>
      </cc:Work>
    </rdf:RDF>
  </metadata>
  <g
     inkscape:label="Layer 1"
     inkscape:groupmode="layer"
     id="layer1"
     transform="translate(-41.371365,-14.343659)">
    <rect
       style="fill:#b3b3b3;stroke-width:0.264583"
       id="rect79"
       width="205.31667"
       height="137.58333"
       x="-165.83121"
       y="-270.21106" />
    <path
       id="rect10"
       style="fill:#f9f9f9;fill-opacity:1;stroke:none;stroke-width:0.220584;stroke-opacity:1"
       d="M 30.993511,148.9226 H 202.046 V 267.81438 H 30.993511 Z" />
    <g
       id="g1235"
       transform="matrix(1.1400916,0,0,1.26834,-1.7827115,77.491655)">
      <g
         id="g1090"
         transform="matrix(-0.78668394,0,0,-1,117.92957,228.67554)">
        <rect
           style="fill:#000000;fill-opacity:1;stroke:none;stroke-width:0.122652;stroke-opacity:1"
           id="rect1006"
           width="79.375"
           height="4.913691"
           x="34.017315"
           y="119.44044" />
        <rect
           style="fill:#000000;fill-opacity:1;stroke:none;stroke-width:0.122652;stroke-opacity:1"
           id="rect1008"
           width="79.375"
           height="4.913691"
           x="-11.717805"
           y="129.6458" />
        <rect
           style="fill:#000000;fill-opacity:1;stroke:none;stroke-width:0.0541947;stroke-opacity:1"
           id="rect1010"
           width="15.497024"
           height="4.913691"
           x="34.017307"
           y="150.0565" />
        <rect
           style="fill:#000000;fill-opacity:1;stroke:none;stroke-width:0.122652;stroke-opacity:1"
           id="rect1012"
           width="79.375"
           height="4.913691"
           x="8.6929102"
           y="139.85115" />
        <rect
           style="fill:#000000;fill-opacity:1;stroke:none;stroke-width:0.0875501;stroke-opacity:1"
           id="rect1014"
           width="40.443451"
           height="4.913691"
           x="-37.042206"
           y="119.44044" />
        <rect
           style="fill:#000000;fill-opacity:1;stroke:none;stroke-width:0.0875501;stroke-opacity:1"
           id="rect1016"
           width="40.443451"
           height="4.913691"
           x="72.948868"
           y="129.6458" />
        <rect
           style="fill:#000000;fill-opacity:1;stroke:none;stroke-width:0.0875501;stroke-opacity:1"
           id="rect1018"
           width="40.443451"
           height="4.913691"
           x="-11.717812"
           y="150.0565" />
        <rect
           style="fill:#000000;fill-opacity:1;stroke:none;stroke-width:0.0875501;stroke-opacity:1"
           id="rect1020"
           width="40.443451"
           height="4.913691"
           x="-37.042206"
           y="139.85115" />
        <rect
           style="fill:#000000;fill-opacity:1;stroke:none;stroke-width:0.0616173;stroke-opacity:1"
           id="rect1022"
           width="20.032738"
           height="4.913691"
           x="8.6929197"
           y="119.44044" />
        <rect
           style="fill:#000000;fill-opacity:1;stroke:none;stroke-width:0.0616173;stroke-opacity:1"
           id="rect1024"
           width="20.032738"
           height="4.913691"
           x="-37.042206"
           y="129.6458" />
        <rect
           style="fill:#000000;fill-opacity:1;stroke:none;stroke-width:0.0616173;stroke-opacity:1"
           id="rect1026"
           width="20.032738"
           height="4.913691"
           x="-37.042206"
           y="150.05652" />
        <rect
           style="fill:#000000;fill-opacity:1;stroke:none;stroke-width:0.0616173;stroke-opacity:1"
           id="rect1028"
           width="20.032738"
           height="4.913691"
           x="93.359573"
           y="139.85115" />
        <rect
           style="fill:#000000;fill-opacity:1;stroke:none;stroke-width:0.0541947;stroke-opacity:1"
           id="rect1030"
           width="15.497024"
           height="4.913691"
           x="54.806"
           y="150.0565" />
        <rect
           style="fill:#000000;fill-opacity:1;stroke:none;stroke-width:0.0846374;stroke-opacity:1"
           id="rect1032"
           width="37.7971"
           height="4.913691"
           x="75.594681"
           y="150.0565" />
        <rect
           style="fill:#000000;fill-opacity:1;stroke:none;stroke-width:0.122652;stroke-opacity:1"
           id="rect1034"
           width="79.375"
           height="4.913691"
           x="34.017315"
           y="119.44044" />
        <rect
           style="fill:#000000;fill-opacity:1;stroke:none;stroke-width:0.122652;stroke-opacity:1"
           id="rect1036"
           width="79.375"
           height="4.913691"
           x="-11.717805"
           y="129.6458" />
        <rect
           style="fill:#000000;fill-opacity:1;stroke:none;stroke-width:0.0541947;stroke-opacity:1"
           id="rect1038"
           width="15.497024"
           height="4.913691"
           x="34.017307"
           y="150.0565" />
        <rect
           style="fill:#000000;fill-opacity:1;stroke:none;stroke-width:0.122652;stroke-opacity:1"
           id="rect1040"
           width="79.375"
           height="4.913691"
           x="8.6929102"
           y="139.85115" />
        <rect
           style="fill:#000000;fill-opacity:1;stroke:none;stroke-width:0.0875501;stroke-opacity:1"
           id="rect1042"
           width="40.443451"
           height="4.913691"
           x="-37.042206"
           y="119.44044" />
        <rect
           style="fill:#000000;fill-opacity:1;stroke:none;stroke-width:0.0875501;stroke-opacity:1"
           id="rect1044"
           width="40.443451"
           height="4.913691"
           x="72.948868"
           y="129.6458" />
        <rect
           style="fill:#000000;fill-opacity:1;stroke:none;stroke-width:0.0875501;stroke-opacity:1"
           id="rect1046"
           width="40.443451"
           height="4.913691"
           x="-11.717812"
           y="150.0565" />
        <rect
           style="fill:#000000;fill-opacity:1;stroke:none;stroke-width:0.0875501;stroke-opacity:1"
           id="rect1048"
           width="40.443451"
           height="4.913691"
           x="-37.042206"
           y="139.85115" />
        <rect
           style="fill:#000000;fill-opacity:1;stroke:none;stroke-width:0.0616173;stroke-opacity:1"
           id="rect1050"
           width="20.032738"
           height="4.913691"
           x="8.6929197"
           y="119.44044" />
        <rect
           style="fill:#000000;fill-opacity:1;stroke:none;stroke-width:0.0616173;stroke-opacity:1"
           id="rect1052"
           width="20.032738"
           height="4.913691"
           x="-37.042206"
           y="129.6458" />
        <rect
           style="fill:#000000;fill-opacity:1;stroke:none;stroke-width:0.0616173;stroke-opacity:1"
           id="rect1054"
           width="20.032738"
           height="4.913691"
           x="-37.042206"
           y="150.05652" />
        <rect
           style="fill:#000000;fill-opacity:1;stroke:none;stroke-width:0.0616173;stroke-opacity:1"
           id="rect1056"
           width="20.032738"
           height="4.913691"
           x="93.359573"
           y="139.85115" />
        <rect
           style="fill:#000000;fill-opacity:1;stroke:none;stroke-width:0.0541947;stroke-opacity:1"
           id="rect1058"
           width="15.497024"
           height="4.913691"
           x="54.806"
           y="150.0565" />
        <rect
           style="fill:#000000;fill-opacity:1;stroke:none;stroke-width:0.0846374;stroke-opacity:1"
           id="rect1060"
           width="37.7971"
           height="4.913691"
           x="75.594681"
           y="150.0565" />
      </g>
      <rect
         style="fill:#000000;fill-opacity:1;stroke:none;stroke-width:0.264583;stroke-opacity:1"
         id="rect849"
         width="150.05655"
         height="12.095239"
         x="28.726191"
         y="56.318451" />
      <rect
         style="fill:#000000;fill-opacity:1;stroke:none;stroke-width:0.108786;stroke-opacity:1"
         id="rect881"
         width="62.443039"
         height="4.913691"
         x="84.627045"
         y="114.52679" />
      <rect
         style="fill:#000000;fill-opacity:1;stroke:none;stroke-width:0.108786;stroke-opacity:1"
         id="rect885"
         width="62.443039"
         height="4.913691"
         x="48.647957"
         y="124.73215" />
      <rect
         style="fill:#000000;fill-opacity:1;stroke:none;stroke-width:0.0480681;stroke-opacity:1"
         id="rect891"
         width="12.191259"
         height="4.913691"
         x="84.627037"
         y="145.14284" />
      <rect
         style="fill:#000000;fill-opacity:1;stroke:none;stroke-width:0.108786;stroke-opacity:1"
         id="rect893"
         width="62.443039"
         height="4.913691"
         x="64.704742"
         y="134.9375" />
      <rect
         style="fill:#000000;fill-opacity:1;stroke:none;stroke-width:0.0776527;stroke-opacity:1"
         id="rect897"
         width="31.816214"
         height="4.913691"
         x="28.725655"
         y="114.52679" />
      <rect
         style="fill:#000000;fill-opacity:1;stroke:none;stroke-width:0.0776527;stroke-opacity:1"
         id="rect901"
         width="31.816214"
         height="4.913691"
         x="115.25386"
         y="124.73215" />
      <rect
         style="fill:#000000;fill-opacity:1;stroke:none;stroke-width:0.0776527;stroke-opacity:1"
         id="rect907"
         width="31.816214"
         height="4.913691"
         x="48.647949"
         y="145.14284" />
      <rect
         style="fill:#000000;fill-opacity:1;stroke:none;stroke-width:0.0776527;stroke-opacity:1"
         id="rect909"
         width="31.816214"
         height="4.913691"
         x="28.725655"
         y="134.9375" />
      <rect
         style="fill:#000000;fill-opacity:1;stroke:none;stroke-width:0.0546516;stroke-opacity:1"
         id="rect929"
         width="15.759433"
         height="4.913691"
         x="64.70475"
         y="114.52679" />
      <rect
         style="fill:#000000;fill-opacity:1;stroke:none;stroke-width:0.0546516;stroke-opacity:1"
         id="rect933"
         width="15.759433"
         height="4.913691"
         x="28.725655"
         y="124.73215" />
      <rect
         style="fill:#000000;fill-opacity:1;stroke:none;stroke-width:0.0546516;stroke-opacity:1"
         id="rect939"
         width="15.759433"
         height="4.913691"
         x="28.725655"
         y="145.14285" />
      <rect
         style="fill:#000000;fill-opacity:1;stroke:none;stroke-width:0.0546516;stroke-opacity:1"
         id="rect941"
         width="15.759433"
         height="4.913691"
         x="131.31064"
         y="134.93748" />
      <rect
         style="fill:#000000;fill-opacity:1;stroke:none;stroke-width:0.0480681;stroke-opacity:1"
         id="rect952"
         width="12.191259"
         height="4.913691"
         x="100.98117"
         y="145.14284" />
      <rect
         style="fill:#000000;fill-opacity:1;stroke:none;stroke-width:0.0750693;stroke-opacity:1"
         id="rect954"
         width="29.734371"
         height="4.913691"
         x="117.33529"
         y="145.14284" />
      <rect
         style="fill:#000000;fill-opacity:1;stroke:none;stroke-width:0.108786;stroke-opacity:1"
         id="rect978"
         width="62.443039"
         height="4.913691"
         x="84.627045"
         y="114.52679" />
      <rect
         style="fill:#000000;fill-opacity:1;stroke:none;stroke-width:0.108786;stroke-opacity:1"
         id="rect980"
         width="62.443039"
         height="4.913691"
         x="48.647957"
         y="124.73215" />
      <rect
         style="fill:#000000;fill-opacity:1;stroke:none;stroke-width:0.0480681;stroke-opacity:1"
         id="rect982"
         width="12.191259"
         height="4.913691"
         x="84.627037"
         y="145.14284" />
      <rect
         style="fill:#000000;fill-opacity:1;stroke:none;stroke-width:0.108786;stroke-opacity:1"
         id="rect984"
         width="62.443039"
         height="4.913691"
         x="64.704742"
         y="134.9375" />
      <rect
         style="fill:#000000;fill-opacity:1;stroke:none;stroke-width:0.0776527;stroke-opacity:1"
         id="rect986"
         width="31.816214"
         height="4.913691"
         x="28.725655"
         y="114.52679" />
      <rect
         style="fill:#000000;fill-opacity:1;stroke:none;stroke-width:0.0776527;stroke-opacity:1"
         id="rect988"
         width="31.816214"
         height="4.913691"
         x="115.25386"
         y="124.73215" />
      <rect
         style="fill:#000000;fill-opacity:1;stroke:none;stroke-width:0.0776527;stroke-opacity:1"
         id="rect990"
         width="31.816214"
         height="4.913691"
         x="48.647949"
         y="145.14284" />
      <rect
         style="fill:#000000;fill-opacity:1;stroke:none;stroke-width:0.0776527;stroke-opacity:1"
         id="rect992"
         width="31.816214"
         height="4.913691"
         x="28.725655"
         y="134.9375" />
      <rect
         style="fill:#000000;fill-opacity:1;stroke:none;stroke-width:0.0546516;stroke-opacity:1"
         id="rect994"
         width="15.759433"
         height="4.913691"
         x="64.70475"
         y="114.52679" />
      <rect
         style="fill:#000000;fill-opacity:1;stroke:none;stroke-width:0.0546516;stroke-opacity:1"
         id="rect996"
         width="15.759433"
         height="4.913691"
         x="28.725655"
         y="124.73215" />
      <rect
         style="fill:#000000;fill-opacity:1;stroke:none;stroke-width:0.0546516;stroke-opacity:1"
         id="rect998"
         width="15.759433"
         height="4.913691"
         x="28.725655"
         y="145.14285" />
      <rect
         style="fill:#000000;fill-opacity:1;stroke:none;stroke-width:0.0546516;stroke-opacity:1"
         id="rect1000"
         width="15.759433"
         height="4.913691"
         x="131.31064"
         y="134.93748" />
      <rect
         style="fill:#000000;fill-opacity:1;stroke:none;stroke-width:0.0480681;stroke-opacity:1"
         id="rect1002"
         width="12.191259"
         height="4.913691"
         x="100.98117"
         y="145.14284" />
      <rect
         style="fill:#000000;fill-opacity:1;stroke:none;stroke-width:0.0750693;stroke-opacity:1"
         id="rect1004"
         width="29.734371"
         height="4.913691"
         x="117.33529"
         y="145.14284" />
      <rect
         style="fill:#000000;fill-opacity:1;stroke:none;stroke-width:0.0707941;stroke-opacity:1"
         id="rect988-4"
         width="26.444113"
         height="4.913691"
         x="152.36174"
         y="73.70533" />
      <rect
         style="fill:#000000;fill-opacity:1;stroke:none;stroke-width:0.0707942;stroke-opacity:1"
         id="rect988-4-9"
         width="26.444113"
         height="4.913691"
         x="152.36174"
         y="83.91069" />
      <rect
         style="fill:#000000;fill-opacity:1;stroke:none;stroke-width:0.0707942;stroke-opacity:1"
         id="rect1122"
         width="26.444113"
         height="4.913691"
         x="152.36174"
         y="94.116051" />
      <rect
         style="fill:#000000;fill-opacity:1;stroke:none;stroke-width:0.0707942;stroke-opacity:1"
         id="rect988-4-6"
         width="26.444113"
         height="4.913691"
         x="152.36174"
         y="104.32141" />
      <rect
         style="fill:#000000;fill-opacity:1;stroke:none;stroke-width:0.0707942;stroke-opacity:1"
         id="rect988-4-7"
         width="26.444113"
         height="4.913691"
         x="152.36174"
         y="114.52679" />
      <rect
         style="fill:#000000;fill-opacity:1;stroke:none;stroke-width:0.0707942;stroke-opacity:1"
         id="rect988-4-69"
         width="26.444113"
         height="4.913691"
         x="152.36172"
         y="124.73215" />
      <rect
         style="fill:#000000;fill-opacity:1;stroke:none;stroke-width:0.0707942;stroke-opacity:1"
         id="rect988-4-5"
         width="26.444113"
         height="4.913691"
         x="152.36172"
         y="134.93748" />
      <rect
         style="fill:#000000;fill-opacity:1;stroke:none;stroke-width:0.0707942;stroke-opacity:1"
         id="rect988-4-4"
         width="26.444113"
         height="4.913691"
         x="152.36133"
         y="145.14284" />
    </g>
    <path
       style="fill:#f9f9f9;fill-opacity:1;stroke:none;stroke-width:0.220584;stroke-opacity:1"
       d="m -5.760134,-27.245489 v 1.904794 h 1.9047933 z"
       id="path114" />
    <path
       id="path102"
       style="fill:#f9f9f9;fill-opacity:1;stroke:none;stroke-width:0.220584;stroke-opacity:1"
       d="m 147.5933,-162.3468 -6.71174,6.71173 h 11.71039 v -6.71173 z m -12.94392,12.94391 -6.71173,6.71174 h 1.96783 v 6.23217 h -8.20001 l -10.10636,10.10636 v 2.83756 h -2.83755 l -6.71174,6.71173 h 50.54213 v -6.71173 h -36.24688 v -6.23218 h 36.24688 v -6.71174 h -17.9405 v -6.23217 h 17.9405 v -6.71174 z m -38.831737,38.83174 -6.71173,6.71173 h 22.493197 v 6.23218 H 82.873733 l -6.71174,6.711736 h 53.743487 v 6.232178 H 69.929823 l -6.711739,6.711729 h 13.463779 v 6.23218 H 56.985906 l -6.711217,6.71122 H 152.59195 v -6.71122 h -33.8739 v -6.23218 h 33.8739 v -6.711729 h -17.9405 v -6.232178 h 17.9405 v -6.711736 h -36.24688 v -6.23218 h 36.24688 v -6.71173 z m -14.38982,32.599553 h 13.8989 v 6.23218 h -13.8989 z m 18.645377,0 h 13.89889 v 6.23218 H 100.0732 Z" />
    <path
       id="rect10-0-0"
       style="fill:#f9f9f9;fill-opacity:1;stroke:none;stroke-width:0.220584;stroke-opacity:1"
       d="m -174.90742,-103.00365 v 6.711215 h 33.8739 v 6.23218 h -33.8739 v 6.71174 h 17.9405 v 6.23217 h -17.9405 v 6.71174 h 36.24688 v 6.23218 h -36.24688 v 6.71173 h 71.16412 v 6.23218 h -71.16412 v 6.71173 h 36.24688 v 6.23218 h -36.24688 v 6.71174 h 17.9405 v 6.23217 h -17.9405 v 6.71174 h 36.24688 v 6.23218 h -36.24688 v 6.71174 h 17.9405 v 6.23217 h 4.74597 v -6.23217 h 36.27375 v 6.23217 h 4.74596 v -6.23217 h 13.898899 v 6.23217 h 4.74648 v -6.23217 h 13.89889 v 6.23217 h 4.74596 v -6.23217 h 33.90026 v 6.23217 h 6.03271 v -6.23217 h 30.1227003 v -6.71174 H -33.977531 v -6.23218 h 30.1221903 v -6.71174 H -33.977531 v -6.23217 h 30.1221903 v -6.71174 H -33.977531 v -6.23218 h 30.1221903 v -6.71173 H -33.977531 v -6.23218 h 30.1221903 v -6.71173 H -33.977531 v -6.23218 h 30.1221903 v -6.71174 H -33.977531 v -6.23217 h 30.1221903 v -6.71174 H -33.977531 v -6.23218 h 30.1221903 v -6.711215 z m 38.61986,6.711215 h 13.89889 v 6.23218 h -13.89889 z m 18.64537,0 h 13.89889 v 6.23218 h -13.89889 z m 18.644859,0 h 36.27375 v 6.23218 h -36.27375 z m 41.01972,0 h 17.96686 v 6.23218 h -17.96686 z m -94.243339,12.94392 h 71.190999 v 6.23217 h -71.190999 z m 75.936959,0 h 36.27324 v 6.23217 h -36.27324 z m -57.630589,12.94391 h 71.190999 v 6.23218 h -71.190999 z m 75.936969,0 h 17.96686 v 6.23218 h -17.96686 z m -41.01972,12.94391 h 17.96738 v 6.23218 h -17.96738 z m 22.71334,0 h 36.27324 v 6.23218 h -36.27324 z m -57.630589,12.94391 h 17.96738 v 6.23218 h -17.96738 z m 22.71334,0 h 71.190489 v 6.23218 h -71.190489 z m -41.01971,12.94392 h 71.190999 v 6.23217 h -71.190999 z m 75.936959,0 h 36.27324 v 6.23217 h -36.27324 z m -57.630589,12.94391 h 71.190999 v 6.23218 h -71.190999 z m 75.936969,0 h 17.96686 v 6.23218 h -17.96686 z" />
    <path
       id="rect79-3"
       style="fill:#f4eed7;stroke-width:0.203109"
       d="m 41.371365,14.343659 v 5.866308 h 33.92971 v -5.866308 z m 38.68343,0 v 5.866308 h 13.92163 v -5.866308 z m 18.67586,0 v 5.866308 h 13.921625 v -5.866308 z m 18.675345,0 v 5.866308 h 36.33319 v -5.866308 z m 41.0869,0 v 5.866308 h 17.99632 v -5.866308 z m 24.03936,0 v 5.866308 h 29.8912 V 14.343659 Z M 41.371365,26.527929 v 5.865791 h 17.96996 v -5.865791 z m 22.72368,0 v 5.865791 h 71.307795 v -5.865791 z m 76.061505,0 v 5.865791 h 36.33267 v -5.865791 z m 42.37571,0 v 5.865791 h 29.8912 V 26.527929 Z M 41.371365,38.711681 v 5.866308 h 36.30631 v -5.866308 z m 41.06003,0 v 5.866308 h 71.307795 v -5.866308 z m 76.061505,0 v 5.866308 h 17.99632 v -5.866308 z m 24.03936,0 v 5.866308 h 29.8912 V 38.711681 Z M 41.371365,50.895435 v 5.866307 h 71.280915 v -5.866307 z m 76.034635,0 v 5.866307 h 17.99684 v -5.866307 z m 22.75055,0 v 5.866307 h 36.33267 v -5.866307 z m 42.37571,0 v 5.866307 h 29.8912 V 50.895435 Z M 41.371365,63.079188 v 5.866307 h 36.30631 v -5.866307 z m 41.06003,0 v 5.866307 h 17.996825 v -5.866307 z m 22.750545,0 v 5.866307 h 71.30728 v -5.866307 z m 77.35032,0 v 5.866307 h 29.8912 V 63.079188 Z M 41.371365,75.262938 v 5.86631 h 17.96996 v -5.86631 z m 22.72368,0 v 5.86631 h 71.307795 v -5.86631 z m 76.061505,0 v 5.86631 h 36.33267 v -5.86631 z m 42.37571,0 v 5.86631 h 29.8912 v -5.86631 z M 41.371365,87.447209 v 5.866309 h 36.30631 v -5.866309 z m 41.06003,0 v 5.866309 h 71.307795 v -5.866309 z m 76.061505,0 v 5.866309 h 17.99632 v -5.866309 z m 24.03936,0 v 5.866309 h 29.8912 V 87.447209 Z M 41.371365,99.630958 v 5.714382 h 17.96996 v -5.714382 z m 22.72368,0 v 5.714382 h 36.333175 v -5.714382 z m 41.086895,0 v 5.714382 h 13.92164 v -5.714382 z m 18.67587,0 v 5.714382 h 13.92215 v -5.714382 z m 18.67586,0 v 5.714382 h 33.95555 v -5.714382 z m 39.99807,0 v 5.714382 h 29.89172 v -5.714382 z" />
  </g>
</svg>
